<svg xmlns="http://www.w3.org/2000/svg" xmlns:xlink="http://www.w3.org/1999/xlink" width="55.116" height="64.799" viewBox="0 0 55.116 64.799">
  <defs>
    <clipPath id="clip-path">
      <rect id="Rectangle_1127" data-name="Rectangle 1127" width="64.799" height="55.116" fill="rgba(196,252,220,0.8)"/>
    </clipPath>
  </defs>
  <g id="Groupe_63" data-name="Groupe 63" transform="translate(55.116) rotate(90)">
    <g id="Groupe_62" data-name="Groupe 62" transform="translate(0 0)" clip-path="url(#clip-path)">
      <path id="Tracé_343" data-name="Tracé 343" d="M8.565,4.282A4.282,4.282,0,1,1,4.282,0,4.282,4.282,0,0,1,8.565,4.282" transform="translate(0 0)" fill="rgba(196,252,220,0.8)"/>
      <path id="Tracé_344" data-name="Tracé 344" d="M8.565,4.282A4.282,4.282,0,1,1,4.282,0,4.282,4.282,0,0,1,8.565,4.282" transform="translate(15.642 0)" fill="rgba(196,252,220,0.8)"/>
      <path id="Tracé_345" data-name="Tracé 345" d="M8.565,4.282A4.282,4.282,0,1,1,4.282,0,4.282,4.282,0,0,1,8.565,4.282" transform="translate(31.096 0)" fill="rgba(196,252,220,0.8)"/>
      <path id="Tracé_346" data-name="Tracé 346" d="M8.565,4.282A4.282,4.282,0,1,1,4.282,0,4.282,4.282,0,0,1,8.565,4.282" transform="translate(24.672 7.634)" fill="rgba(196,252,220,0.8)"/>
      <path id="Tracé_347" data-name="Tracé 347" d="M8.565,4.282A4.282,4.282,0,1,1,4.282,0,4.282,4.282,0,0,1,8.565,4.282" transform="translate(16.944 15.268)" fill="rgba(196,252,220,0.8)"/>
      <path id="Tracé_348" data-name="Tracé 348" d="M8.565,4.282A4.282,4.282,0,1,1,4.282,0,4.282,4.282,0,0,1,8.565,4.282" transform="translate(32.586 15.268)" fill="rgba(196,252,220,0.8)"/>
      <path id="Tracé_349" data-name="Tracé 349" d="M8.565,4.282A4.282,4.282,0,1,1,4.282,0,4.282,4.282,0,0,1,8.565,4.282" transform="translate(48.227 15.268)" fill="rgba(196,252,220,0.8)"/>
      <path id="Tracé_350" data-name="Tracé 350" d="M8.565,4.282A4.282,4.282,0,1,1,4.282,0,4.282,4.282,0,0,1,8.565,4.282" transform="translate(40.499 23.183)" fill="rgba(196,252,220,0.8)"/>
      <path id="Tracé_351" data-name="Tracé 351" d="M8.565,4.282A4.282,4.282,0,1,1,4.282,0,4.282,4.282,0,0,1,8.565,4.282" transform="translate(25.046 23.183)" fill="rgba(196,252,220,0.8)"/>
      <path id="Tracé_352" data-name="Tracé 352" d="M8.565,4.282A4.282,4.282,0,1,1,4.282,0,4.282,4.282,0,0,1,8.565,4.282" transform="translate(32.586 30.537)" fill="rgba(196,252,220,0.8)"/>
      <path id="Tracé_353" data-name="Tracé 353" d="M8.565,4.282A4.282,4.282,0,1,1,4.282,0,4.282,4.282,0,0,1,8.565,4.282" transform="translate(24.3 38.73)" fill="rgba(196,252,220,0.8)"/>
      <path id="Tracé_354" data-name="Tracé 354" d="M8.565,4.282A4.282,4.282,0,1,1,4.282,0,4.282,4.282,0,0,1,8.565,4.282" transform="translate(39.662 38.73)" fill="rgba(196,252,220,0.8)"/>
      <path id="Tracé_355" data-name="Tracé 355" d="M8.565,4.282A4.282,4.282,0,1,1,4.282,0,4.282,4.282,0,0,1,8.565,4.282" transform="translate(31.469 46.551)" fill="rgba(196,252,220,0.8)"/>
      <path id="Tracé_356" data-name="Tracé 356" d="M8.565,4.282A4.282,4.282,0,1,1,4.282,0,4.282,4.282,0,0,1,8.565,4.282" transform="translate(15.642 46.551)" fill="rgba(196,252,220,0.8)"/>
      <path id="Tracé_357" data-name="Tracé 357" d="M8.565,4.282A4.282,4.282,0,1,1,4.282,0,4.282,4.282,0,0,1,8.565,4.282" transform="translate(0 46.551)" fill="rgba(196,252,220,0.8)"/>
      <path id="Tracé_358" data-name="Tracé 358" d="M8.565,4.282A4.282,4.282,0,1,1,4.282,0,4.282,4.282,0,0,1,8.565,4.282" transform="translate(8.845 38.73)" fill="rgba(196,252,220,0.8)"/>
      <path id="Tracé_359" data-name="Tracé 359" d="M8.565,4.282A4.282,4.282,0,1,1,4.282,0,4.282,4.282,0,0,1,8.565,4.282" transform="translate(48.227 30.91)" fill="rgba(196,252,220,0.8)"/>
      <path id="Tracé_360" data-name="Tracé 360" d="M8.565,4.282A4.282,4.282,0,1,1,4.282,0,4.282,4.282,0,0,1,8.565,4.282" transform="translate(16.944 30.91)" fill="rgba(196,252,220,0.8)"/>
      <path id="Tracé_361" data-name="Tracé 361" d="M8.565,4.282A4.282,4.282,0,1,1,4.282,0,4.282,4.282,0,0,1,8.565,4.282" transform="translate(56.233 23.183)" fill="rgba(196,252,220,0.8)"/>
      <path id="Tracé_362" data-name="Tracé 362" d="M8.565,4.282A4.282,4.282,0,1,1,4.282,0,4.282,4.282,0,0,1,8.565,4.282" transform="translate(39.662 7.634)" fill="rgba(196,252,220,0.8)"/>
      <path id="Tracé_363" data-name="Tracé 363" d="M8.565,4.282A4.282,4.282,0,1,1,4.282,0,4.282,4.282,0,0,1,8.565,4.282" transform="translate(8.845 7.634)" fill="rgba(196,252,220,0.8)"/>
    </g>
  </g>
</svg>
