<svg xmlns="http://www.w3.org/2000/svg" xmlns:xlink="http://www.w3.org/1999/xlink" width="342.026" height="329.634" viewBox="0 0 342.026 329.634">
  <defs>
    <clipPath id="clip-path">
      <rect id="Rectangle_1101" data-name="Rectangle 1101" width="342.026" height="329.634" fill="none"/>
    </clipPath>
  </defs>
  <g id="icone_logo_schoolverse" data-name="icone logo schoolverse" transform="translate(0)" opacity="0.6">
    <g id="Groupe_7" data-name="Groupe 7" transform="translate(0)">
      <g id="Groupe_6" data-name="Groupe 6" clip-path="url(#clip-path)">
        <path id="Tracé_259" data-name="Tracé 259" d="M146.281,26.67v2.907l-22.318,10.68s.952-7.861-21.451-10.5c0,0-18.958-1.234-27.1.817,0,0,40.151-1.664,48.549,11.424V62.127s-10.876-5.154-32.817-5.277c-21.94.123-32.823,5.277-32.823,5.277V40.256L36,29.576V26.67L91.145,0Z" transform="translate(69.491)" fill="#c4fcdc"/>
        <path id="Tracé_260" data-name="Tracé 260" d="M74.57,22.211V25.6H69.114v-3.39c0-.932,1.916-1.433,1.916-1.433V13.837l1.623-.557v7.5s1.916.5,1.916,1.433" transform="translate(133.396 25.631)" fill="#c4fcdc"/>
        <path id="Tracé_261" data-name="Tracé 261" d="M78.673,24.339h-1.28a7.223,7.223,0,0,0-1.377-2.1,7.8,7.8,0,0,0-.788,2.1h-6.9a17.211,17.211,0,0,1,2.124-6.317h6.1a17.237,17.237,0,0,1,2.121,6.317" transform="translate(131.871 34.784)" fill="#c4fcdc"/>
      </g>
    </g>
    <g id="Groupe_9" data-name="Groupe 9" transform="translate(0)">
      <g id="Groupe_8" data-name="Groupe 8" clip-path="url(#clip-path)">
        <path id="Tracé_262" data-name="Tracé 262" d="M188.568,25.465H41.976L22.289,43.394V143.925L181.973,183.4v59.639H64.254L47.092,222.167l-25.263,20.78,26.971,32.8,149.176.018,16.707-16.728V157.248L55,118.272V58.194l117.757-.018L189.9,79.044l25.287-20.78Z" transform="translate(42.132 49.149)" fill="none" stroke="#c4fcdc" stroke-width="1"/>
        <path id="Tracé_263" data-name="Tracé 263" d="M311.494,73.052v.214c-.3,33.421-69.443,78.936-154.72,101.841C71.45,198.014,2.306,189.625,2.01,156.416V156.2c.17-17.624,19.5-38.616,50.239-57.9v3.619C24.7,119.588,7.586,138.578,7.416,154.585v.214c.3,31.463,67.014,39.128,149.358,17.115,82.3-22.055,149.056-65.4,149.355-97.03V74.67c-.17-18.861-24.226-29.163-61.18-29.632V41.46c40.1.129,66.375,11.2,66.545,31.592" transform="translate(3.879 80.021)" fill="#c4fcdc"/>
        <path id="Tracé_264" data-name="Tracé 264" d="M149.093,42.056V45.42A381.49,381.49,0,0,0,91.188,56.4a422.062,422.062,0,0,0-55.22,18.9V72.031a430.828,430.828,0,0,1,55.22-18.82,389.1,389.1,0,0,1,57.9-11.155" transform="translate(69.421 81.172)" fill="#c4fcdc"/>
        <path id="Tracé_265" data-name="Tracé 265" d="M86.886,28.758a4.988,4.988,0,1,1-4.99-4.99,4.99,4.99,0,0,1,4.99,4.99" transform="translate(148.441 45.874)" fill="#eaf9f0"/>
        <path id="Tracé_266" data-name="Tracé 266" d="M99.826,41.4a7.239,7.239,0,1,1-7.237-7.237A7.238,7.238,0,0,1,99.826,41.4" transform="translate(164.729 65.941)" fill="#eaf9f0"/>
        <path id="Tracé_267" data-name="Tracé 267" d="M84.845,45.994a3.406,3.406,0,1,1-3.4-3.4,3.4,3.4,0,0,1,3.4,3.4" transform="translate(150.61 82.2)" fill="#eaf9f0"/>
        <path id="Tracé_268" data-name="Tracé 268" d="M34.131,28.022a3.882,3.882,0,1,1-3.882-3.882,3.882,3.882,0,0,1,3.882,3.882" transform="translate(50.889 46.592)" fill="#eaf9f0"/>
        <path id="Tracé_269" data-name="Tracé 269" d="M39.8,39.275a4.008,4.008,0,1,1-4.008-4.008A4.008,4.008,0,0,1,39.8,39.275" transform="translate(61.342 68.068)" fill="#eaf9f0"/>
        <path id="Tracé_270" data-name="Tracé 270" d="M41.752,60.555a5.186,5.186,0,1,1-5.186-5.186,5.185,5.185,0,0,1,5.186,5.186" transform="translate(60.566 106.867)" fill="#eaf9f0"/>
        <path id="Tracé_271" data-name="Tracé 271" d="M29.762,68.993a4.688,4.688,0,1,1-4.688-4.688,4.687,4.687,0,0,1,4.688,4.688" transform="translate(39.347 124.114)" fill="#eaf9f0"/>
        <path id="Tracé_272" data-name="Tracé 272" d="M82.576,81.628A3.673,3.673,0,1,1,78.9,77.954a3.675,3.675,0,0,1,3.674,3.674" transform="translate(145.2 150.458)" fill="#eaf9f0"/>
        <path id="Tracé_273" data-name="Tracé 273" d="M93.419,107.473a3.479,3.479,0,1,1-3.481-3.481,3.481,3.481,0,0,1,3.481,3.481" transform="translate(166.875 200.713)" fill="#eaf9f0"/>
        <path id="Tracé_274" data-name="Tracé 274" d="M87.625,113.137a3.424,3.424,0,1,1-3.422-3.422,3.423,3.423,0,0,1,3.422,3.422" transform="translate(155.906 211.759)" fill="#eaf9f0"/>
        <path id="Tracé_275" data-name="Tracé 275" d="M84.257,102.811a4.687,4.687,0,1,1-4.685-4.685,4.686,4.686,0,0,1,4.685,4.685" transform="translate(144.532 189.391)" fill="#eaf9f0"/>
        <path id="Tracé_276" data-name="Tracé 276" d="M35.382,94.678a3.153,3.153,0,1,1-3.15-3.15,3.149,3.149,0,0,1,3.15,3.15" transform="translate(56.119 176.657)" fill="#eaf9f0"/>
        <path id="Tracé_277" data-name="Tracé 277" d="M41.606,101.822a3.194,3.194,0,1,1-3.194-3.194,3.194,3.194,0,0,1,3.194,3.194" transform="translate(67.974 190.36)" fill="#eaf9f0"/>
        <path id="Tracé_278" data-name="Tracé 278" d="M26.716,101.754a3.126,3.126,0,1,1-3.126-3.126,3.128,3.128,0,0,1,3.126,3.126" transform="translate(39.495 190.36)" fill="#eaf9f0"/>
        <path id="Tracé_279" data-name="Tracé 279" d="M38.892,114a4.738,4.738,0,1,1-4.738-4.738A4.738,4.738,0,0,1,38.892,114" transform="translate(56.775 210.892)" fill="#eaf9f0"/>
        <path id="Tracé_280" data-name="Tracé 280" d="M98.149,74.826a6.575,6.575,0,1,1-6.575-6.575,6.576,6.576,0,0,1,6.575,6.575" transform="translate(164.055 131.73)" fill="#eaf9f0"/>
        <path id="Tracé_281" data-name="Tracé 281" d="M29.848,34.3a4.739,4.739,0,1,1-4.741-4.741A4.741,4.741,0,0,1,29.848,34.3" transform="translate(39.314 57.044)" fill="#eaf9f0"/>
        <path id="Tracé_282" data-name="Tracé 282" d="M6.8,71.65a3.4,3.4,0,1,1-3.4-3.4,3.4,3.4,0,0,1,3.4,3.4" transform="translate(0 131.73)" fill="#eaf9f0"/>
        <path id="Tracé_283" data-name="Tracé 283" d="M115.285,62.564a3.479,3.479,0,1,1-3.481-3.481,3.481,3.481,0,0,1,3.481,3.481" transform="translate(209.078 114.035)" fill="#eaf9f0"/>
        <path id="Tracé_284" data-name="Tracé 284" d="M104.249,56.05a3.424,3.424,0,1,1-3.422-3.422,3.423,3.423,0,0,1,3.422,3.422" transform="translate(187.992 101.576)" fill="#eaf9f0"/>
        <path id="Tracé_285" data-name="Tracé 285" d="M60.614,85.225a3.491,3.491,0,1,1-3.493-3.493,3.494,3.494,0,0,1,3.493,3.493" transform="translate(103.514 157.75)" fill="#eaf9f0"/>
        <path id="Tracé_286" data-name="Tracé 286" d="M72.734,89.619a2.362,2.362,0,1,1-2.362-2.362,2.362,2.362,0,0,1,2.362,2.362" transform="translate(131.267 168.413)" fill="#eaf9f0"/>
        <path id="Tracé_287" data-name="Tracé 287" d="M50.577,94.492a2.841,2.841,0,1,1-2.842-2.842,2.841,2.841,0,0,1,2.842,2.842" transform="translate(86.653 176.892)" fill="#eaf9f0"/>
        <path id="Tracé_288" data-name="Tracé 288" d="M110.9,73.616a4.738,4.738,0,1,1-4.738-4.738,4.738,4.738,0,0,1,4.738,4.738" transform="translate(195.749 132.94)" fill="#eaf9f0"/>
        <path id="Tracé_289" data-name="Tracé 289" d="M10.789,95.724a4.738,4.738,0,1,1-4.738-4.738,4.738,4.738,0,0,1,4.738,4.738" transform="translate(2.534 175.61)" fill="#eaf9f0"/>
        <path id="Tracé_290" data-name="Tracé 290" d="M125.683,51.711a6.8,6.8,0,1,1-6.8-6.8,6.8,6.8,0,0,1,6.8,6.8" transform="translate(216.343 86.686)" fill="#eaf9f0"/>
      </g>
    </g>
  </g>
</svg>
