<svg xmlns="http://www.w3.org/2000/svg" xmlns:xlink="http://www.w3.org/1999/xlink" width="1735.953" height="882.076" viewBox="0 0 1735.953 882.076">
  <defs>
    <clipPath id="clip-path">
      <rect id="Rectangle_1128" data-name="Rectangle 1128" width="1735.953" height="882.076" transform="translate(-512.577 -27)" fill="rgba(234,249,240,0.06)"/>
    </clipPath>
  </defs>
  <g id="pattern" transform="translate(512.577 26.999)">
    <g id="Groupe_66" data-name="Groupe 66" transform="translate(0 0.001)" clip-path="url(#clip-path)">
      <path id="Tracé_364" data-name="Tracé 364" d="M89.354,16.411A16.407,16.407,0,1,1,72.943,0,16.412,16.412,0,0,1,89.354,16.411" transform="translate(488.329 -0.005)" fill="rgba(234,249,240,0.06)"/>
      <path id="Tracé_365" data-name="Tracé 365" d="M112.594,34.2a23.808,23.808,0,1,1-23.8-23.8,23.8,23.8,0,0,1,23.8,23.8" transform="translate(561.205 89.791)" fill="rgba(234,249,240,0.06)"/>
      <path id="Tracé_393" data-name="Tracé 393" d="M112.594,34.2a23.808,23.808,0,1,1-23.8-23.8,23.8,23.8,0,0,1,23.8,23.8" transform="translate(-419.776 574.489)" fill="rgba(234,249,240,0.06)"/>
      <path id="Tracé_407" data-name="Tracé 407" d="M112.594,34.2a23.808,23.808,0,1,1-23.8-23.8,23.8,23.8,0,0,1,23.8,23.8" transform="translate(825.424 546.327)" fill="rgba(234,249,240,0.06)"/>
      <path id="Tracé_411" data-name="Tracé 411" d="M112.594,34.2a23.808,23.808,0,1,1-23.8-23.8,23.8,23.8,0,0,1,23.8,23.8" transform="translate(689.951 624.08)" fill="rgba(234,249,240,0.06)"/>
      <path id="Tracé_366" data-name="Tracé 366" d="M80.069,30.019a11.2,11.2,0,1,1-11.2-11.2,11.195,11.195,0,0,1,11.2,11.2" transform="translate(498.028 162.547)" fill="rgba(234,249,240,0.06)"/>
      <path id="Tracé_367" data-name="Tracé 367" d="M31.534,13.14A12.769,12.769,0,1,1,18.766.371,12.766,12.766,0,0,1,31.534,13.14" transform="translate(51.794 3.199)" fill="rgba(234,249,240,0.06)"/>
      <path id="Tracé_389" data-name="Tracé 389" d="M31.534,13.14A12.769,12.769,0,1,1,18.766.371,12.766,12.766,0,0,1,31.534,13.14" transform="translate(-151.755 84.899)" fill="rgba(234,249,240,0.06)"/>
      <path id="Tracé_404" data-name="Tracé 404" d="M31.534,13.14A12.769,12.769,0,1,1,18.766.371,12.766,12.766,0,0,1,31.534,13.14" transform="translate(1093.445 56.738)" fill="rgba(234,249,240,0.06)"/>
      <path id="Tracé_368" data-name="Tracé 368" d="M37.78,24.682A13.183,13.183,0,1,1,24.6,11.5,13.183,13.183,0,0,1,37.78,24.682" transform="translate(98.579 99.309)" fill="rgba(234,249,240,0.06)"/>
      <path id="Tracé_390" data-name="Tracé 390" d="M37.78,24.682A13.183,13.183,0,1,1,24.6,11.5,13.183,13.183,0,0,1,37.78,24.682" transform="translate(-70.237 143.503)" fill="rgba(234,249,240,0.06)"/>
      <path id="Tracé_409" data-name="Tracé 409" d="M37.78,24.682A13.183,13.183,0,1,1,24.6,11.5,13.183,13.183,0,0,1,37.78,24.682" transform="translate(1174.962 115.341)" fill="rgba(234,249,240,0.06)"/>
      <path id="Tracé_382" data-name="Tracé 382" d="M37.78,24.682A13.183,13.183,0,1,1,24.6,11.5,13.183,13.183,0,0,1,37.78,24.682" transform="translate(-83.421 249.309)" fill="rgba(234,249,240,0.06)"/>
      <path id="Tracé_408" data-name="Tracé 408" d="M37.78,24.682A13.183,13.183,0,1,1,24.6,11.5,13.183,13.183,0,0,1,37.78,24.682" transform="translate(1161.779 221.147)" fill="rgba(234,249,240,0.06)"/>
      <path id="Tracé_369" data-name="Tracé 369" d="M45.126,48.657A17.057,17.057,0,1,1,28.069,31.6,17.051,17.051,0,0,1,45.126,48.657" transform="translate(95.108 272.915)" fill="rgba(234,249,240,0.06)"/>
      <path id="Tracé_412" data-name="Tracé 412" d="M45.126,48.657A17.057,17.057,0,1,1,28.069,31.6,17.051,17.051,0,0,1,45.126,48.657" transform="translate(892.892 683.025)" fill="rgba(234,249,240,0.06)"/>
      <path id="Tracé_384" data-name="Tracé 384" d="M45.126,48.657A17.057,17.057,0,1,1,28.069,31.6,17.051,17.051,0,0,1,45.126,48.657" transform="translate(-289.892 -19.549)" fill="rgba(234,249,240,0.06)"/>
      <path id="Tracé_400" data-name="Tracé 400" d="M45.126,48.657A17.057,17.057,0,1,1,28.069,31.6,17.051,17.051,0,0,1,45.126,48.657" transform="translate(955.307 -47.711)" fill="rgba(234,249,240,0.06)"/>
      <path id="Tracé_370" data-name="Tracé 370" d="M30.855,55.956A15.419,15.419,0,1,1,15.437,40.537,15.415,15.415,0,0,1,30.855,55.956" transform="translate(0.155 350.102)" fill="rgba(234,249,240,0.06)"/>
      <path id="Tracé_394" data-name="Tracé 394" d="M30.855,55.956A15.419,15.419,0,1,1,15.437,40.537,15.415,15.415,0,0,1,30.855,55.956" transform="translate(-487.845 189.433)" fill="rgba(234,249,240,0.06)"/>
      <path id="Tracé_399" data-name="Tracé 399" d="M30.855,55.956A15.419,15.419,0,1,1,15.437,40.537,15.415,15.415,0,0,1,30.855,55.956" transform="translate(757.355 161.271)" fill="rgba(234,249,240,0.06)"/>
      <path id="Tracé_388" data-name="Tracé 388" d="M30.855,55.956A15.419,15.419,0,1,1,15.437,40.537,15.415,15.415,0,0,1,30.855,55.956" transform="translate(-361.845 350.102)" fill="rgba(234,249,240,0.06)"/>
      <path id="Tracé_401" data-name="Tracé 401" d="M30.855,55.956A15.419,15.419,0,1,1,15.437,40.537,15.415,15.415,0,0,1,30.855,55.956" transform="translate(883.355 321.94)" fill="rgba(234,249,240,0.06)"/>
      <path id="Tracé_396" data-name="Tracé 396" d="M30.855,55.956A15.419,15.419,0,1,1,15.437,40.537,15.415,15.415,0,0,1,30.855,55.956" transform="translate(-481.898 464.605)" fill="rgba(234,249,240,0.06)"/>
      <path id="Tracé_405" data-name="Tracé 405" d="M30.855,55.956A15.419,15.419,0,1,1,15.437,40.537,15.415,15.415,0,0,1,30.855,55.956" transform="translate(763.301 436.443)" fill="rgba(234,249,240,0.06)"/>
      <path id="Tracé_395" data-name="Tracé 395" d="M30.855,55.956A15.419,15.419,0,1,1,15.437,40.537,15.415,15.415,0,0,1,30.855,55.956" transform="translate(-346.426 114.465)" fill="rgba(234,249,240,0.06)"/>
      <path id="Tracé_398" data-name="Tracé 398" d="M30.855,55.956A15.419,15.419,0,1,1,15.437,40.537,15.415,15.415,0,0,1,30.855,55.956" transform="translate(898.774 86.303)" fill="rgba(234,249,240,0.06)"/>
      <path id="Tracé_387" data-name="Tracé 387" d="M30.855,55.956A15.419,15.419,0,1,1,15.437,40.537,15.415,15.415,0,0,1,30.855,55.956" transform="translate(-120.238 597.014)" fill="rgba(234,249,240,0.06)"/>
      <path id="Tracé_410" data-name="Tracé 410" d="M30.855,55.956A15.419,15.419,0,1,1,15.437,40.537,15.415,15.415,0,0,1,30.855,55.956" transform="translate(1112.193 563.793)" fill="rgba(234,249,240,0.06)"/>
      <path id="Tracé_383" data-name="Tracé 383" d="M30.855,55.956A15.419,15.419,0,1,1,15.437,40.537,15.415,15.415,0,0,1,30.855,55.956" transform="translate(-185.018 470.371)" fill="rgba(234,249,240,0.06)"/>
      <path id="Tracé_406" data-name="Tracé 406" d="M30.855,55.956A15.419,15.419,0,1,1,15.437,40.537,15.415,15.415,0,0,1,30.855,55.956" transform="translate(1060.182 442.209)" fill="rgba(234,249,240,0.06)"/>
      <path id="Tracé_371" data-name="Tracé 371" d="M79.03,66.27A12.084,12.084,0,1,1,66.945,54.186,12.085,12.085,0,0,1,79.03,66.27" transform="translate(473.819 467.984)" fill="rgba(234,249,240,0.06)"/>
      <path id="Tracé_372" data-name="Tracé 372" d="M88.979,91.672A11.444,11.444,0,1,1,77.531,80.224,11.45,11.45,0,0,1,88.979,91.672" transform="translate(594.92 630.893)" fill="rgba(234,249,240,0.06)"/>
      <path id="Tracé_373" data-name="Tracé 373" d="M82.93,97.2A11.26,11.26,0,1,1,71.674,85.946,11.256,11.256,0,0,1,82.93,97.2" transform="translate(506.485 678.819)" fill="rgba(234,249,240,0.06)"/>
      <path id="Tracé_374" data-name="Tracé 374" d="M85.344,89.767A15.414,15.414,0,1,1,69.935,74.358,15.41,15.41,0,0,1,85.344,89.767" transform="translate(481.55 583.921)" fill="rgba(234,249,240,0.06)"/>
      <path id="Tracé_375" data-name="Tracé 375" d="M29.437,78.119a10.364,10.364,0,1,1-10.359-10.36,10.356,10.356,0,0,1,10.359,10.36" transform="translate(104.104 585.211)" fill="rgba(234,249,240,0.06)"/>
      <path id="Tracé_391" data-name="Tracé 391" d="M29.437,78.119a10.364,10.364,0,1,1-10.359-10.36,10.356,10.356,0,0,1,10.359,10.36" transform="translate(-41.165 457.861)" fill="rgba(234,249,240,0.06)"/>
      <path id="Tracé_386" data-name="Tracé 386" d="M29.437,78.119a10.364,10.364,0,1,1-10.359-10.36,10.356,10.356,0,0,1,10.359,10.36" transform="translate(-141.697 707.51)" fill="rgba(234,249,240,0.06)"/>
      <path id="Tracé_413" data-name="Tracé 413" d="M29.437,78.119a10.364,10.364,0,1,1-10.359-10.36,10.356,10.356,0,0,1,10.359,10.36" transform="translate(1072.302 683.01)" fill="rgba(234,249,240,0.06)"/>
      <path id="Tracé_385" data-name="Tracé 385" d="M29.437,78.119a10.364,10.364,0,1,1-10.359-10.36,10.356,10.356,0,0,1,10.359,10.36" transform="translate(-172.898 289.211)" fill="rgba(234,249,240,0.06)"/>
      <path id="Tracé_403" data-name="Tracé 403" d="M29.437,78.119a10.364,10.364,0,1,1-10.359-10.36,10.356,10.356,0,0,1,10.359,10.36" transform="translate(1072.302 261.049)" fill="rgba(234,249,240,0.06)"/>
      <path id="Tracé_376" data-name="Tracé 376" d="M35.858,85.364a10.5,10.5,0,1,1-10.5-10.5,10.5,10.5,0,0,1,10.5,10.5" transform="translate(154.255 679.401)" fill="rgba(234,249,240,0.06)"/>
      <path id="Tracé_377" data-name="Tracé 377" d="M20.659,85.142A10.282,10.282,0,1,1,10.376,74.86,10.286,10.286,0,0,1,20.659,85.142" transform="translate(15.498 636.257)" fill="rgba(234,249,240,0.06)"/>
      <path id="Tracé_378" data-name="Tracé 378" d="M40.212,101.08A15.583,15.583,0,1,1,24.63,85.5,15.583,15.583,0,0,1,40.212,101.08" transform="translate(-300.864 635.903)" fill="rgba(234,249,240,0.06)"/>
      <path id="Tracé_379" data-name="Tracé 379" d="M107.881,66.108A21.625,21.625,0,1,1,86.256,44.483a21.629,21.629,0,0,1,21.625,21.625" transform="translate(553.131 347.93)" fill="rgba(234,249,240,0.06)"/>
      <path id="Tracé_380" data-name="Tracé 380" d="M31.175,21.379A15.587,15.587,0,1,1,15.583,5.787,15.593,15.593,0,0,1,31.175,21.379" transform="translate(0 49.976)" fill="rgba(234,249,240,0.06)"/>
      <path id="Tracé_381" data-name="Tracé 381" d="M31.175,21.379A15.587,15.587,0,1,1,15.583,5.787,15.593,15.593,0,0,1,31.175,21.379" transform="translate(-185 186.779)" fill="rgba(234,249,240,0.06)"/>
      <path id="Tracé_402" data-name="Tracé 402" d="M31.175,21.379A15.587,15.587,0,1,1,15.583,5.787,15.593,15.593,0,0,1,31.175,21.379" transform="translate(1060.2 158.617)" fill="rgba(234,249,240,0.06)"/>
    </g>
  </g>
</svg>
